<svg width="49" height="43" viewBox="0 0 49 43" fill="none" xmlns="http://www.w3.org/2000/svg">
<rect x="2.65343" y="3.18518" width="42.4549" height="36.6296" rx="6.38267" fill="#00B792"/>
<path d="M24.2007 18.3283C24.2007 19.4963 23.9326 20.5686 23.3965 21.5452C22.8603 22.5026 22.0369 23.2781 20.9264 23.8717C19.8158 24.4653 18.4371 24.7621 16.7904 24.7621H13.7459V32H8.83439V11.8371H16.7904C18.3988 11.8371 19.7583 12.1148 20.8689 12.6701C21.9795 13.2254 22.8124 13.9913 23.3677 14.9678C23.923 15.9444 24.2007 17.0645 24.2007 18.3283ZM16.417 20.8559C17.3553 20.8559 18.0542 20.6357 18.5137 20.1952C18.9733 19.7548 19.203 19.1325 19.203 18.3283C19.203 17.5241 18.9733 16.9018 18.5137 16.4614C18.0542 16.021 17.3553 15.8008 16.417 15.8008H13.7459V20.8559H16.417ZM41.2622 11.8371V15.7721H35.9199V32H31.0085V15.7721H25.6662V11.8371H41.2622Z" fill="black"/>
</svg>
